<svg version="1.1" viewBox="0.0 0.0 860.0 250.0" fill="none" stroke="none" stroke-linecap="square" stroke-miterlimit="10" xmlns:xlink="http://www.w3.org/1999/xlink" xmlns="http://www.w3.org/2000/svg"><clipPath id="p.0"><path d="m0 0l960.0 0l0 540.0l-960.0 0l0 -540.0z" clip-rule="nonzero"/></clipPath><g clip-path="url(#p.0)"><path fill="#ffffff" d="m0 0l960.0 0l0 540.0l-960.0 0z" fill-rule="evenodd"/><path fill="#000000" fill-opacity="0.0" d="m-22.572178 -25.178478l223.62204 0l0 308.6614l-223.62204 0z" fill-rule="evenodd"/><path fill="#d62839" d="m77.177185 165.16026l21.5625 0q0 -4.546875 0.234375 -8.09375q0.234375 -3.5625 1.15625 -6.703125q0.9375 -3.140625 2.859375 -6.171875q1.921875 -3.03125 5.4218674 -6.40625q5.46875 -4.90625 11.125 -10.609367q5.65625 -5.71875 10.203133 -12.359375q4.53125 -6.515625 7.4375 -13.90625q2.921875 -7.40625 2.921875 -15.796875q0 -10.5 -3.375 -18.65625q-3.375 -8.156254 -9.781258 -13.859379q-6.421875 -5.71875 -15.6875 -8.6875q-9.249992 -2.96875 -21.031242 -2.96875q-10.59375 0 -19.75 2.859375q-9.140621 2.84375 -15.781246 8.203125q-6.765625 5.484375 -10.734375 13.296879q-3.953125 7.796875 -4.078125 17.59375l21.5625 0q0 -6.0625 2.4375 -10.421875q2.4531212 -4.375 6.531246 -7.296875q3.96875 -2.7968788 9.15625 -4.125004q5.1875 -1.34375 10.65625 -1.34375q7.109375 0 12.578125 1.859375q5.4843674 1.859375 9.109367 5.484379q3.25 3.25 4.9375 7.96875q1.703125 4.71875 1.703125 10.78125q0 5.828125 -2.21875 11.078125q-2.21875 5.234375 -5.59375 9.90625q-3.5 4.78125 -7.6406174 9.09375q-4.125 4.296875 -8.09375 8.375q-5.828125 5.3749924 -9.328125 9.281242q-3.484375 3.890625 -5.359375 8.09375q-1.859375 4.3125 -2.4375 9.734375q-0.578125 5.40625 -0.703125 13.796875zm-2.453125 36.484375q0 5.359375 3.328125 8.96875q3.328125 3.609375 9.96875 3.609375q6.640625 0 10.078125 -3.609375q3.4375 -3.609375 3.4375 -8.96875q0 -5.59375 -3.4375 -9.328125q-3.4375 -3.734375 -10.078125 -3.734375q-6.640625 0 -9.96875 3.734375q-3.328125 3.734375 -3.328125 9.328125z" fill-rule="nonzero"/><path fill="#ffffff" d="m53.89501 178.02887l65.480316 0l0 44.283463l-65.480316 0z" fill-rule="evenodd"/><path stroke="#ffffff" stroke-width="1.0" stroke-linejoin="round" stroke-linecap="butt" d="m53.89501 178.02887l65.480316 0l0 44.283463l-65.480316 0z" fill-rule="evenodd"/><path fill="#000000" fill-opacity="0.0" d="m-25.17668 155.34038l223.62206 0l0 72.72441l-223.62206 0z" fill-rule="evenodd"/><path fill="#d62839" d="m88.61969 197.76788l-1.71875 8.8125l3.078125 0l1.71875 -8.8125l5.40625 0l0 -2.9375l-4.84375 0l1.46875 -7.609375l4.984375 0l0 -2.984375l-4.390625 0l1.75 -8.9375l-3.0625 0l-1.765625 8.9375l-5.671875 0l1.765625 -8.9375l-3.078125 0l-1.765625 8.9375l-6.125 0l0 2.984375l5.546875 0l-1.484375 7.609375l-5.6875 0l0 2.9375l5.140625 0l-1.71875 8.8125l3.0625 0l1.71875 -8.8125l5.671875 0zm-5.109375 -2.9375l1.484375 -7.609375l5.671875 0l-1.484375 7.609375l-5.671875 0z" fill-rule="nonzero"/><path fill="#000000" fill-opacity="0.0" d="m156.3622 45.923885l770.77167 0l0 166.4567l-770.77167 0z" fill-rule="evenodd"/><path fill="#242424" d="m177.39345 107.310135l0 9.53125l21.796875 0l0 45.078125l-21.796875 0l0 9.484375l53.671875 0l0 -9.484375l-20.921875 0l0 -54.609375l-32.75 0zm20.375 -16.828125q0 2.65625 1.625 4.4375q1.625 1.78125 4.953125 1.78125q3.25 0 4.90625 -1.78125q1.671875 -1.78125 1.671875 -4.4375q0 -1.484375 -0.484375 -2.71875q-0.46875 -1.25 -1.421875 -2.078125q-0.765625 -0.78125 -1.953125 -1.21875q-1.1875 -0.4375 -2.71875 -0.4375q-1.546875 0 -2.765625 0.4375q-1.203125 0.4375 -1.984375 1.21875q-0.9375 0.890625 -1.390625 2.140625q-0.4375 1.234375 -0.4375 2.65625zm93.30873 63.921875q0 1.53125 -0.59375 2.90625q-0.59375 1.359375 -1.71875 2.484375q-1.84375 1.828125 -5.109375 2.875q-3.25 1.03125 -7.625 1.03125q-2.78125 0 -5.625 -0.59375q-2.84375 -0.59375 -5.15625 -2.015625q-2.375 -1.421875 -3.953125 -3.71875q-1.5625 -2.3125 -1.796875 -5.703125l-10.953125 0q0 4.09375 1.859375 7.890625q1.859375 3.78125 5.421875 6.625q3.5 2.90625 8.59375 4.65625q5.09375 1.75 11.609375 1.75q5.6875 0 10.484375 -1.359375q4.796875 -1.375 8.234375 -3.859375q3.4375 -2.484375 5.359375 -5.96875q1.921875 -3.5 1.921875 -7.765625q0 -3.96875 -1.6875 -6.984375q-1.6875 -3.03125 -4.890625 -5.34375q-3.1875 -2.25 -7.875 -3.875q-4.671875 -1.640625 -10.609375 -2.875q-4.5 -0.890625 -7.4375 -1.84375q-2.921875 -0.953125 -4.640625 -2.125q-1.78125 -1.1875 -2.5 -2.671875q-0.703125 -1.484375 -0.703125 -3.375q0 -1.84375 0.890625 -3.5625q0.890625 -1.71875 2.671875 -3.015625q1.71875 -1.296875 4.34375 -2.0625q2.640625 -0.78125 6.140625 -0.78125q3.375 0 6.0625 0.953125q2.703125 0.9375 4.59375 2.484375q1.90625 1.546875 2.96875 3.53125q1.0625 1.984375 1.0625 4.046875l10.96875 0q0 -4.203125 -1.8125 -7.84375q-1.8125 -3.640625 -5.125 -6.375q-3.3125 -2.71875 -8.0625 -4.25q-4.734375 -1.546875 -10.65625 -1.546875q-5.515625 0 -10.109375 1.484375q-4.578125 1.46875 -7.90625 4.015625q-3.3125 2.546875 -5.15625 5.953125q-1.828125 3.40625 -1.828125 7.328125q0 3.96875 1.765625 6.96875q1.78125 2.984375 5.046875 5.171875q3.203125 2.25 7.734375 3.859375q4.53125 1.59375 10.03125 2.71875q4.5 0.890625 7.515625 1.984375q3.03125 1.09375 4.875 2.390625q1.828125 1.3125 2.59375 2.890625q0.78125 1.5625 0.78125 3.515625zm78.13687 -16.234375l0 -9.0l-45.3125 0l0 9.0l45.3125 0zm24.88684 33.234375l10.953125 0l0 -45.96875q1.125 -2.078125 2.640625 -3.796875q1.515625 -1.71875 3.28125 -3.015625q2.2031555 -1.484375 4.7969055 -2.34375q2.609375 -0.859375 5.640625 -0.859375q3.484375 0 6.171875 0.828125q2.703125 0.828125 4.609375 2.671875q1.828125 1.828125 2.78125 4.796875q0.953125 2.953125 0.953125 7.21875l0 40.46875l10.953125 0l0 -40.703125q0 -6.390625 -1.578125 -11.046875q-1.5625 -4.65625 -4.46875 -7.671875q-2.90625 -3.015625 -7.03125 -4.4375q-4.109375 -1.421875 -9.140625 -1.421875q-3.734375 0.0625 -7.078125 1.09375q-3.34375 1.03125 -6.1875305 2.9375q-1.890625 1.234375 -3.59375 2.921875q-1.6875 1.6875 -3.109375 3.703125l-0.765625 -9.46875l-9.828125 0l0 64.09375zm115.04312 0l9.9530945 0l0 -64.09375l-11.0155945 0l0 45.96875q-0.890625 2.078125 -2.234375 3.828125q-1.328125 1.734375 -3.09375 2.984375q-2.140625 1.53125 -5.046875 2.390625q-2.890625 0.859375 -6.578125 0.859375q-3.140625 0 -5.546875 -0.828125q-2.390625 -0.828125 -4.046875 -2.90625q-1.65625 -2.0 -2.484375 -5.4375q-0.828125 -3.4375 -0.828125 -8.65625l0 -38.203125l-10.96875 0l0 38.09375q0 7.15625 1.5625 12.28125q1.578125 5.125 4.484375 8.453125q2.90625 3.3125 6.984375 4.890625q4.09375 1.5625 9.125 1.5625q6.28125 0 11.078125 -2.640625q4.8125 -2.640625 8.0 -7.375l0.65625 8.828125zm35.60556 -64.09375l-9.828125 0l0 64.09375l10.421875 0l0 -51.0q0.359375 -0.953125 0.921875 -1.78125q0.5625 -0.828125 1.328125 -1.484375q1.0 -0.828125 2.453125 -1.265625q1.453125 -0.453125 3.40625 -0.453125q1.78125 0 3.109375 0.453125q1.34375 0.4375 2.234375 1.390625q0.9375 1.0 1.375 2.546875q0.453125 1.53125 0.453125 3.546875l0 48.046875l10.421875 0l0 -47.984375q0 -0.359375 0 -0.625q0 -0.265625 0 -0.5625q0.1875 -1.484375 0.71875 -2.6875q0.53125 -1.21875 1.484375 -2.171875q0.9375 -0.890625 2.359375 -1.421875q1.421875 -0.53125 3.375 -0.53125q1.84375 0 3.234375 0.484375q1.390625 0.46875 2.34375 1.40625q0.890625 1.015625 1.359375 2.5625q0.46875 1.53125 0.46875 3.546875l0 47.984375l10.4375 0l0 -47.875q0 -4.609375 -1.078125 -8.015625q-1.0625 -3.40625 -3.078125 -5.546875q-1.828125 -1.890625 -4.5 -2.859375q-2.65625 -0.984375 -5.984375 -0.984375q-2.421875 0.0625 -4.46875 0.65625q-2.046875 0.578125 -3.703125 1.59375q-1.296875 0.890625 -2.421875 2.078125q-1.125 1.171875 -1.96875 2.546875q-0.640625 -1.484375 -1.5625 -2.671875q-0.921875 -1.1875 -2.046875 -2.015625q-1.53125 -1.0625 -3.578125 -1.625q-2.046875 -0.5625 -4.59375 -0.5625q-4.5 0.0625 -7.671875 1.953125q-3.171875 1.890625 -5.125 5.265625l-0.296875 -6.03125zm122.10559 32.75l0 -1.234375q0 -5.046875 -0.84375 -9.578125q-0.828125 -4.53125 -2.421875 -8.265625q-1.546875 -3.3125 -3.5625 -6.0q-2.0 -2.703125 -4.546875 -4.59375q-2.84375 -2.015625 -6.34375 -3.140625q-3.5 -1.125 -7.640625 -1.125q-3.328125 0 -6.171875 0.65625q-2.84375 0.640625 -5.203125 1.890625q-1.90625 1.0 -3.5625 2.390625q-1.65625 1.390625 -3.015625 3.109375l0 -33.765625l-10.953125 0l0 91.0l10.0625 0l0.53125 -7.28125q1.0625 1.359375 2.25 2.484375q1.1875 1.125 2.5 2.078125q2.71875 1.890625 6.125 2.890625q3.40625 1.015625 7.546875 1.015625q3.625 0 6.734375 -0.890625q3.109375 -0.890625 5.71875 -2.484375q3.609375 -2.3125 6.1875 -5.828125q2.578125 -3.53125 4.171875 -7.984375q1.1875 -3.375 1.8125 -7.25q0.625 -3.890625 0.625 -8.09375zm-10.96875 -1.234375l0 1.234375q0 2.84375 -0.359375 5.578125q-0.34375 2.71875 -1.125 5.09375q-0.9375 3.140625 -2.546875 5.6875q-1.59375 2.546875 -3.96875 4.203125q-1.765625 1.296875 -4.03125 1.984375q-2.25 0.6875 -4.96875 0.6875q-2.84375 0 -5.21875 -0.734375q-2.359375 -0.75 -4.265625 -2.109375q-1.890625 -1.375 -3.34375 -3.171875q-1.453125 -1.8125 -2.515625 -3.9375l0 -28.03125q1.0 -2.125 2.453125 -3.9375q1.453125 -1.8125 3.359375 -3.171875q1.828125 -1.296875 4.1875 -2.03125q2.375 -0.75 5.21875 -0.75q2.609375 0 4.734375 0.59375q2.140625 0.59375 3.859375 1.65625q2.484375 1.484375 4.203125 4.09375q1.71875 2.609375 2.796875 5.734375q0.765625 2.5625 1.140625 5.4375q0.390625 2.859375 0.390625 5.890625zm57.76184 33.765625q9.359375 0 15.71875 -3.765625q6.375 -3.765625 9.578125 -8.625l-6.6875 -5.203125q-3.03125 3.90625 -7.59375 6.28125q-4.5625 2.359375 -10.421875 2.359375q-4.4375 0 -8.125 -1.65625q-3.671875 -1.65625 -6.265625 -4.5625q-2.546875 -2.71875 -4.0 -6.265625q-1.453125 -3.5625 -1.875 -8.25l0 -0.40625l45.796875 0l0 -4.921875q0 -6.6875 -1.6875 -12.4375q-1.6875 -5.75 -5.125 -10.015625q-3.4375 -4.203125 -8.625 -6.59375q-5.171875 -2.40625 -12.109375 -2.40625q-5.515625 0 -10.765625 2.25q-5.234375 2.25 -9.3125 6.453125q-4.15625 4.265625 -6.640625 10.40625q-2.484375 6.125 -2.484375 13.890625l0 2.484375q0 6.6875 2.25 12.375q2.25 5.6875 6.28125 9.84375q4.03125 4.140625 9.6875 6.453125q5.65625 2.3125 12.40625 2.3125zm-1.421875 -57.46875q4.203125 0 7.25 1.546875q3.0625 1.53125 5.078125 4.015625q2.015625 2.5 3.140625 5.90625q1.125 3.40625 1.125 6.359375l0 0.53125l-34.484375 0q0.65625 -4.4375 2.28125 -7.84375q1.625 -3.40625 4.0 -5.78125q2.375 -2.296875 5.328125 -3.515625q2.96875 -1.21875 6.28125 -1.21875zm87.91809 -9.0q-6.984375 0 -12.46875 3.046875q-5.484375 3.046875 -9.390625 8.328125l-0.0625 -1.609375l-0.46875 -8.578125l-10.4375 0l0 64.09375l11.03125 0l0 -41.109375q1.0625 -2.96875 2.6875 -5.359375q1.625 -2.40625 3.828125 -4.0625q2.421875 -1.890625 5.671875 -2.875q3.265625 -0.984375 7.296875 -0.984375q3.140625 0 6.015625 0.328125q2.875 0.328125 6.0625 1.046875l1.484375 -10.734375q-1.65625 -0.703125 -4.953125 -1.109375q-3.28125 -0.421875 -6.296875 -0.421875z" fill-rule="nonzero"/></g></svg>