<svg version="1.1" viewBox="0.0 0.0 170.0 240.0" fill="none" stroke="none" stroke-linecap="square" stroke-miterlimit="10" xmlns:xlink="http://www.w3.org/1999/xlink" xmlns="http://www.w3.org/2000/svg"><clipPath id="p.0"><path d="m0 0l960.0 0l0 540.0l-960.0 0l0 -540.0z" clip-rule="nonzero"/></clipPath><g clip-path="url(#p.0)"><path fill="#ffffff" d="m0 0l960.0 0l0 540.0l-960.0 0z" fill-rule="evenodd"/><path fill="#000000" fill-opacity="0.0" d="m-22.572178 -25.178478l223.62204 0l0 308.6614l-223.62204 0z" fill-rule="evenodd"/><path fill="#d62839" d="m77.177185 165.16026l21.5625 0q0 -4.546875 0.234375 -8.09375q0.234375 -3.5625 1.15625 -6.703125q0.9375 -3.140625 2.859375 -6.171875q1.921875 -3.03125 5.4218674 -6.40625q5.46875 -4.90625 11.125 -10.609367q5.65625 -5.71875 10.203133 -12.359375q4.53125 -6.515625 7.4375 -13.90625q2.921875 -7.40625 2.921875 -15.796875q0 -10.5 -3.375 -18.65625q-3.375 -8.156254 -9.781258 -13.859379q-6.421875 -5.71875 -15.6875 -8.6875q-9.249992 -2.96875 -21.031242 -2.96875q-10.59375 0 -19.75 2.859375q-9.140621 2.84375 -15.781246 8.203125q-6.765625 5.484375 -10.734375 13.296879q-3.953125 7.796875 -4.078125 17.59375l21.5625 0q0 -6.0625 2.4375 -10.421875q2.4531212 -4.375 6.531246 -7.296875q3.96875 -2.7968788 9.15625 -4.125004q5.1875 -1.34375 10.65625 -1.34375q7.109375 0 12.578125 1.859375q5.4843674 1.859375 9.109367 5.484379q3.25 3.25 4.9375 7.96875q1.703125 4.71875 1.703125 10.78125q0 5.828125 -2.21875 11.078125q-2.21875 5.234375 -5.59375 9.90625q-3.5 4.78125 -7.6406174 9.09375q-4.125 4.296875 -8.09375 8.375q-5.828125 5.3749924 -9.328125 9.281242q-3.484375 3.890625 -5.359375 8.09375q-1.859375 4.3125 -2.4375 9.734375q-0.578125 5.40625 -0.703125 13.796875zm-2.453125 36.484375q0 5.359375 3.328125 8.96875q3.328125 3.609375 9.96875 3.609375q6.640625 0 10.078125 -3.609375q3.4375 -3.609375 3.4375 -8.96875q0 -5.59375 -3.4375 -9.328125q-3.4375 -3.734375 -10.078125 -3.734375q-6.640625 0 -9.96875 3.734375q-3.328125 3.734375 -3.328125 9.328125z" fill-rule="nonzero"/><path fill="#ffffff" d="m53.89501 178.02887l65.480316 0l0 44.283463l-65.480316 0z" fill-rule="evenodd"/><path stroke="#ffffff" stroke-width="1.0" stroke-linejoin="round" stroke-linecap="butt" d="m53.89501 178.02887l65.480316 0l0 44.283463l-65.480316 0z" fill-rule="evenodd"/><path fill="#000000" fill-opacity="0.0" d="m-25.17668 155.34038l223.62206 0l0 72.72441l-223.62206 0z" fill-rule="evenodd"/><path fill="#d62839" d="m88.61969 197.76788l-1.71875 8.8125l3.078125 0l1.71875 -8.8125l5.40625 0l0 -2.9375l-4.84375 0l1.46875 -7.609375l4.984375 0l0 -2.984375l-4.390625 0l1.75 -8.9375l-3.0625 0l-1.765625 8.9375l-5.671875 0l1.765625 -8.9375l-3.078125 0l-1.765625 8.9375l-6.125 0l0 2.984375l5.546875 0l-1.484375 7.609375l-5.6875 0l0 2.9375l5.140625 0l-1.71875 8.8125l3.0625 0l1.71875 -8.8125l5.671875 0zm-5.109375 -2.9375l1.484375 -7.609375l5.671875 0l-1.484375 7.609375l-5.671875 0z" fill-rule="nonzero"/></g></svg>